# xmcd CD database file
#
# Track frame offsets:
#	150
#	17548
#	34425
#	51215
#	82247
#	109081
#	126756
#	146492
#	163092
#	191880
#	209950
#
# Disc length: 3073 seconds
#
# Revision: 0
# Processed by: cddbd v1.5.2PL0 Copyright (c) Steve Scherf et al.
# Submitted via: CDex 1.70beta2
#
DISCID=a90bff0b
DTITLE=Shawn Kellerman - Land of a 1000 Dreams
DYEAR=2007
DGENRE=Blues
TTITLE0=Land Of A 1000 Dreams
TTITLE1=Big Time
TTITLE2=Do My Thing
TTITLE3=Wash My Back
TTITLE4=Whipsnap
TTITLE5=My Baby's a Gift
TTITLE6=Never Give up
TTITLE7=Bug and Shawn
TTITLE8=Pass me not, Oh Gentle Savior
TTITLE9=Get Out Of My Life
TTITLE10=Verb
EXTD=YEAR: 2007
EXTT0=
EXTT1=
EXTT2=
EXTT3=
EXTT4=
EXTT5=
EXTT6=
EXTT7=
EXTT8=
EXTT9=
EXTT10=
PLAYORDER=
